<?xml version="1.0" encoding="utf-8"?>
<!-- Generator: Adobe Illustrator 19.2.1, SVG Export Plug-In . SVG Version: 6.00 Build 0)  -->
<svg version="1.1" id="layer" xmlns="http://www.w3.org/2000/svg" xmlns:xlink="http://www.w3.org/1999/xlink" x="0px" y="0px"
	 viewBox="0 0 652 652" style="enable-background:new 0 0 652 652;" xml:space="preserve">
<style type="text/css">
	.st0{fill:#19A9B7;}
	.st1{fill:#606060;}
</style>
<path class="st0" d="M61.1,291c-17.4,0-29.9,13.2-29.9,30.7c0,17.4,12.8,30.1,29.9,30.1c16.6,0,29.3-13.7,29.3-30.3
	C90.4,304.9,77.7,291,61.1,291z M89.8,358.6v-13h-0.3c-6.3,9.5-17.1,15.1-28.5,14.8c-21.9,0-39.3-16.7-39.3-39.1
	c0-22.3,17.8-38.9,39.3-38.9c11.5,0,22.2,4.9,28.5,14.9h0.3v-13h9.3v74.3H89.8z"/>
<path class="st1" d="M154.1,291c-16.6,0-29.2,14-29.2,30.6c0,16.6,12.7,30.3,29.2,30.3c17.1,0,29.9-12.8,29.9-30.1
	C184,304.1,171.4,291,154.1,291 M154,360.4c-11.4,0-22-5.3-28.5-14.8h-0.3v39.2H116V284.3h9.3v13h0.3c6.4-9.4,17-15,28.4-14.9
	c21.5,0,39.3,16.6,39.3,38.9C193.3,343.7,176,360.4,154,360.4 M242.4,291c-16.6,0-28.8,14.4-28.8,30.8c0,16.2,12.7,30,28.8,30
	c16.8,0,28.8-14.1,28.8-30.9C271.2,304.8,258.4,290.9,242.4,291 M242.2,360.4c-20.6,0-38.1-17.5-38.1-38.5
	c0-21.5,16.8-39.5,38.1-39.5c20.9,0,38.3,17.8,38.3,39C280.6,342.7,263.2,360.4,242.2,360.4 M294.7,358.6h9.3V258.1h-9.3
	L294.7,358.6z M324.1,358.6h9.3v-74.3h-9.3L324.1,358.6z M374.1,292.9v65.8h-9.3v-65.8h-15.4v-8.6h15.4v-26.2h9.3v26.2h17.5v8.6
	H374.1z M404.1,358.6h9.3v-74.3h-9.3L404.1,358.6z M466.9,360.4c-21.4,0.3-39-16.8-39.3-38.2c0-0.2,0-0.4,0-0.6
	c0-21.9,17.9-39.1,39.3-39.1c15.9,0,30.3,9.1,36.3,24.3H493c-4.9-9.7-14.9-15.8-25.8-15.8c-16.6-0.1-30.1,13.2-30.2,29.8
	c0,0.2,0,0.3,0,0.5c-0.3,16.5,12.8,30.2,29.3,30.6c0.3,0,0.6,0,0.8,0c10.8,0,20.7-5.1,25.8-15.1h10.3
	C495.7,351.7,483.9,360.4,466.9,360.4 M553.5,291c-17.4,0-29.9,13.2-29.9,30.7c0,17.4,12.8,30.1,29.9,30.1
	c16.6,0,29.3-13.7,29.3-30.3C582.7,304.9,570,291,553.5,291z M582.2,358.6v-13h-0.3c-6.3,9.5-17.1,15.1-28.5,14.8
	c-21.9,0-39.3-16.7-39.3-39.1c0-22.3,17.8-38.9,39.3-38.9c11.5,0,22.2,4.9,28.5,14.9h0.3v-13h9.3v74.3H582.2L582.2,358.6z
	 M612.5,358.6h9.3V258.1h-9.3L612.5,358.6z M334.1,263.5c0,3-2.4,5.4-5.3,5.4c-3,0-5.3-2.4-5.3-5.4c0-3,2.4-5.4,5.3-5.4
	S334.1,260.5,334.1,263.5 M414.2,263.5c0,3-2.4,5.4-5.3,5.4c-3,0-5.3-2.4-5.3-5.4c0-3,2.4-5.4,5.3-5.4S414.2,260.5,414.2,263.5"/>
</svg>
